# xmcd
#
# Track frame offsets: 
#        150
#        18739
#        40993
#        56866
#        79962
#        114991
#        132459
#        151731
#        171212
#        207056
#
# Disc length: 3078 seconds
#
# Revision: 0
# Processed by: cddbd v1.5.2PL0 Copyright (c) Steve Scherf et al.
# Submitted via: ExactAudioCopy v1.3
#
DISCID=850c040a
DTITLE=Mike Zito - Blue Room
DYEAR=2018
DGENRE=Blues Rock
TTITLE0=Hollywood
TTITLE1=Pull The Trigger
TTITLE2=It's All Good
TTITLE3=Gravy Jam
TTITLE4=Lovering
TTITLE5=Shoes Blues
TTITLE6=Ways About You
TTITLE7=Soundcheck
TTITLE8=Lightening Bug
TTITLE9=Rocket Man
EXTD=
EXTT0=
EXTT1=
EXTT2=
EXTT3=
EXTT4=
EXTT5=
EXTT6=
EXTT7=
EXTT8=
EXTT9=
PLAYORDER=
